<?xml version="1.0" encoding="utf-8"?>
<!-- Generator: Adobe Illustrator 18.0.0, SVG Export Plug-In . SVG Version: 6.00 Build 0)  -->
<!DOCTYPE svg PUBLIC "-//W3C//DTD SVG 1.1//EN" "http://www.w3.org/Graphics/SVG/1.1/DTD/svg11.dtd">
<svg version="1.1" id="Layer_1" xmlns="http://www.w3.org/2000/svg" xmlns:xlink="http://www.w3.org/1999/xlink" x="0px" y="0px"
	 viewBox="0 0 512 512" enable-background="new 0 0 512 512" xml:space="preserve">
<g>
	<polyline fill="#5B4386" points="-31,512 536,512 536,-54 -31,-54 -31,512 	"/>
	<path fill="#FFFFFF" d="M93.6,138.6h7.8c2.6,0,4.5-0.4,5.6-1.1c1.1-0.7,1.6-1.7,1.6-3c0-1.2-0.5-2.1-1.6-2.8
		c-1.1-0.7-2.9-1.1-5.6-1.1h-7.8V138.6 M93.6,122.6h6.6c2.4,0,4-0.3,5-0.9c0.9-0.6,1.4-1.5,1.4-2.6c0-1.1-0.5-1.9-1.4-2.5
		c-0.9-0.6-2.6-0.9-4.9-0.9h-6.7C93.6,115.8,93.6,122.6,93.6,122.6z M79.3,107.2h27.4c4.6,0,8.1,1,10.5,2.8c2.4,1.9,3.7,4.2,3.7,7.1
		c0,2.3-0.9,4.4-2.6,6c-1.2,1.1-2.9,2-5.1,2.7c3.3,0.7,5.7,2,7.3,3.8c1.6,1.8,2.3,4,2.3,6.7c0,2.2-0.6,4.2-1.7,5.9
		c-1.1,1.8-2.7,3.1-4.7,4.2c-1.2,0.6-3.1,1.1-5.5,1.4c-3.3,0.4-5.5,0.6-6.5,0.6H79.3V107.2z"/>
	<path fill="#FFFFFF" d="M141.1,133.5c0,2.7,0.6,4.8,1.8,6.1c1.2,1.3,2.7,2,4.4,2c1.8,0,3.3-0.6,4.4-1.9c1.2-1.3,1.7-3.4,1.7-6.2
		c0-2.6-0.6-4.6-1.7-5.9c-1.2-1.3-2.6-1.9-4.3-1.9c-1.8,0-3.3,0.7-4.5,2C141.7,128.8,141.1,130.8,141.1,133.5 M128.1,133.5
		c0-4.5,1.7-8.2,5.2-11.1c3.4-2.9,8.1-4.4,13.9-4.4c6.7,0,11.7,1.7,15.2,5.1c2.7,2.8,4.1,6.2,4.1,10.2c0,4.5-1.7,8.3-5.1,11.2
		c-3.4,2.9-8.1,4.4-14.1,4.4c-5.4,0-9.7-1.2-13-3.6C130.1,142.3,128.1,138.4,128.1,133.5z"/>
	<path fill="#FFFFFF" d="M184.7,133.5c0,2.7,0.6,4.8,1.8,6.1c1.2,1.3,2.7,2,4.4,2c1.8,0,3.3-0.6,4.4-1.9c1.2-1.3,1.7-3.4,1.7-6.2
		c0-2.6-0.6-4.6-1.7-5.9c-1.2-1.3-2.6-1.9-4.3-1.9c-1.8,0-3.3,0.7-4.5,2C185.2,128.8,184.7,130.8,184.7,133.5 M171.6,133.5
		c0-4.5,1.7-8.2,5.2-11.1c3.4-2.9,8.1-4.4,13.9-4.4c6.7,0,11.7,1.7,15.2,5.1c2.7,2.8,4.1,6.2,4.1,10.2c0,4.5-1.7,8.3-5.1,11.2
		c-3.4,2.9-8.1,4.4-14.1,4.4c-5.4,0-9.7-1.2-13-3.6C173.7,142.3,171.6,138.4,171.6,133.5z"/>
	<path fill="#FFFFFF" d="M232.1,107.2v11.4h7.2v8.6h-7.2v10.8c0,1.3,0.1,2.1,0.4,2.6c0.4,0.6,1.2,1,2.3,1c1,0,2.4-0.2,4.1-0.7l1,7.3
		c-3.2,0.6-6.3,0.8-9.1,0.8c-3.3,0-5.7-0.4-7.2-1.1c-1.5-0.7-2.7-1.8-3.4-3.3c-0.7-1.5-1.1-3.8-1.1-7.1v-10.3h-4.6v-8.6h4.6v-5.5
		L232.1,107.2"/>
	<path fill="#FFFFFF" d="M243.2,140.3l13-1.1c0.5,1.2,1.1,2.1,1.9,2.6c0.8,0.5,1.9,0.8,3.3,0.8c1.5,0,2.7-0.3,3.5-1
		c0.6-0.5,1-1.1,1-1.8c0-0.8-0.3-1.4-0.8-1.8c-0.4-0.3-2.1-0.7-5.1-1.1c-4.5-0.7-7.6-1.3-9.4-1.9c-1.7-0.6-3.2-1.6-4.4-3
		c-1.2-1.4-1.8-3-1.8-4.8c0-2,0.6-3.6,1.9-5c1.3-1.4,3.1-2.5,5.3-3.2c2.3-0.7,5.3-1,9.1-1c4,0,7,0.3,8.9,0.8
		c1.9,0.5,3.5,1.4,4.8,2.5c1.3,1.1,2.3,2.7,3.2,4.6l-13,1.1c-0.3-0.9-0.8-1.6-1.4-2c-0.9-0.6-2-0.9-3.3-0.9c-1.3,0-2.3,0.2-2.9,0.7
		c-0.6,0.4-0.9,1-0.9,1.6c0,0.7,0.4,1.2,1.2,1.6c0.8,0.4,2.6,0.7,5.5,1c4.3,0.4,7.5,1,9.6,1.8c2.1,0.7,3.7,1.8,4.8,3.2
		c1.1,1.4,1.7,2.9,1.7,4.6c0,1.7-0.6,3.3-1.8,4.9c-1.2,1.6-3,2.9-5.5,3.8c-2.5,0.9-6,1.4-10.3,1.4c-6.2,0-10.5-0.7-13.1-2.2
		C245.6,145.2,243.9,143.1,243.2,140.3"/>
	<path fill="#FFFFFF" d="M300.4,107.2v11.4h7.2v8.6h-7.2v10.8c0,1.3,0.1,2.1,0.4,2.6c0.4,0.6,1.2,1,2.3,1c1,0,2.4-0.2,4.1-0.7l1,7.3
		c-3.2,0.6-6.3,0.8-9.1,0.8c-3.3,0-5.7-0.4-7.2-1.1c-1.5-0.7-2.7-1.8-3.4-3.3c-0.7-1.5-1.1-3.8-1.1-7.1v-10.3h-4.6v-8.6h4.6v-5.5
		L300.4,107.2"/>
	<path fill="#FFFFFF" d="M313.4,118.6h12.1v5.1c1.2-2.2,2.4-3.6,3.6-4.5c1.2-0.8,2.8-1.2,4.6-1.2c1.9,0,4,0.5,6.3,1.5l-4,8.5
		c-1.5-0.5-2.8-0.8-3.6-0.8c-1.7,0-3,0.6-4,1.8c-1.3,1.7-2,4.9-2,9.6v9.8h-13L313.4,118.6"/>
	<path fill="#FFFFFF" d="M366.4,134.6c-1.7,0.5-3.5,1-5.3,1.4c-2.5,0.6-4.1,1.2-4.7,1.7c-0.7,0.6-1,1.2-1,2c0,0.8,0.3,1.5,1,2.1
		c0.7,0.5,1.7,0.8,3,0.8c1.4,0,2.6-0.3,3.8-0.9c1.2-0.6,2-1.3,2.5-2.1c0.5-0.8,0.7-1.9,0.7-3.3L366.4,134.6 M356.7,128.9l-13-1.1
		c0.5-2,1.1-3.6,2-4.8c0.9-1.2,2.1-2.2,3.8-3c1.2-0.6,2.8-1.1,4.8-1.4c2-0.3,4.3-0.5,6.7-0.5c3.8,0,6.9,0.2,9.2,0.6
		c2.3,0.4,4.3,1.2,5.8,2.4c1.1,0.8,1.9,2,2.6,3.6c0.6,1.5,0.9,3,0.9,4.4V142c0,1.4,0.1,2.5,0.3,3.3c0.2,0.8,0.6,1.8,1.3,3h-12.4
		c-0.5-0.8-0.8-1.4-1-1.8c-0.2-0.4-0.3-1-0.5-1.9c-1.7,1.4-3.3,2.4-4.9,3c-2.2,0.8-4.8,1.2-7.8,1.2c-3.9,0-6.9-0.8-9-2.4
		c-2-1.6-3.1-3.6-3.1-5.9c0-2.2,0.7-4,2.2-5.4c1.5-1.4,4.2-2.5,8.1-3.2c4.7-0.8,7.8-1.4,9.2-1.8c1.4-0.3,2.9-0.8,4.5-1.3
		c0-1.3-0.3-2.2-0.9-2.7c-0.6-0.5-1.6-0.8-3-0.8c-1.8,0-3.2,0.3-4.1,0.9C357.7,126.8,357.1,127.6,356.7,128.9z"/>
	<path fill="#FFFFFF" d="M400.1,133.6c0,2.7,0.6,4.6,1.7,5.9c1.1,1.3,2.5,1.9,4.2,1.9c1.5,0,2.7-0.6,3.8-1.8c1-1.2,1.5-3.3,1.5-6.3
		c0-2.7-0.5-4.7-1.6-6c-1-1.3-2.3-1.9-3.8-1.9c-1.6,0-3,0.6-4.1,1.9C400.7,128.7,400.1,130.8,400.1,133.6 M387.2,159.8v-41.1h12.1
		v3.9c1.7-1.6,3.2-2.7,4.6-3.3c1.9-0.8,4-1.2,6.2-1.2c4.5,0,8,1.5,10.5,4.5c2.5,3,3.7,6.8,3.7,11.2c0,4.9-1.3,8.7-4,11.2
		c-2.7,2.6-6.1,3.9-10.2,3.9c-2,0-3.8-0.3-5.4-0.8c-1.6-0.5-3.1-1.3-4.4-2.3v14H387.2z"/>
	<path fill="#FFFFFF" d="M202.5,323.6v55.1h46.2c18,0,29.4-0.4,34.3-1.3c7.4-1.1,13.5-3.9,18.2-8.2c4.7-4.4,7-10.2,7-17.5
		c0-6.2-1.8-11.4-5.4-15.7c-3.6-4.3-8.8-7.5-15.6-9.4c-6.8-2-21.6-2.9-44.3-2.9L202.5,323.6 M202.5,239.5v49.3h32.6
		c19.4,0,31.4-0.2,36.1-0.7c8.5-0.9,15.2-3.4,20.1-7.6c4.9-4.2,7.3-9.8,7.3-16.7c0-6.6-2.1-11.9-6.3-16.1
		c-4.2-4.1-10.4-6.6-18.7-7.5c-4.9-0.5-19.1-0.7-42.5-0.7L202.5,239.5L202.5,239.5z M157.7,204.7h94.2c18.6,0,32.5,0.7,41.7,2.1
		c9.2,1.4,17.4,4.3,24.6,8.7c7.2,4.4,13.2,10.3,18.1,17.7c4.8,7.4,7.2,15.6,7.2,24.7c0,9.9-2.8,18.9-8.4,27.2
		c-5.6,8.2-13.1,14.4-22.7,18.6c13,3.7,23.1,9.9,30.1,18.8c7,8.9,10.5,19.2,10.5,31.2c0,9.4-2.5,18.5-7.4,27.4
		c-4.9,8.9-11.7,16-20.2,21.3c-8.5,5.3-19.1,8.6-31.6,9.8c-7.8,0.8-26.8,1.2-56.8,1.4h-79.4L157.7,204.7L157.7,204.7z"/>
</g>
</svg>
