<?xml version="1.0" ?><!DOCTYPE svg  PUBLIC '-//W3C//DTD SVG 1.1//EN'  'http://www.w3.org/Graphics/SVG/1.1/DTD/svg11.dtd'><svg enable-background="new 0 0 200 200" height="200px" id="Слой_1" version="1.1" viewBox="0 0 200 200" width="200px" xml:space="preserve" xmlns="http://www.w3.org/2000/svg" xmlns:xlink="http://www.w3.org/1999/xlink"><g><path d="M195.627,134.303c-0.268-0.037-0.534-0.074-0.801-0.109c0.146,2.545-0.441,5.103,0.352,8.203   c0.252-0.903,0.434-1.256,0.436-1.606C195.643,138.626,195.627,136.463,195.627,134.303z" fill="#E94C88"/><path d="M191.452,42.411c0.391-1.236,0.284-2.495-0.269-3.865c-0.244,1.217-0.51,2.433-0.713,3.657   c-0.027,0.165,0.225,0.507,0.389,0.536C191.041,42.771,191.398,42.579,191.452,42.411z" fill="#E94C88"/><path d="M5.024,59.124c-0.614,0.2-0.607,0.709-0.638,1.189c-0.032,0.478-0.008,0.961-0.008,1.441   c0.172,0.032,0.346,0.067,0.519,0.098c0.167-0.445,0.353-0.886,0.494-1.341C5.664,59.624,5.483,58.973,5.024,59.124z" fill="#E94C88"/><path d="M8.267,78.134c-0.012,0-0.024,0.002-0.037,0.002l0.024,0.023C8.259,78.151,8.262,78.143,8.267,78.134z" fill="#E94C88"/><path d="M35.685,17.75c0.435,0,0.468-0.4,0.477-0.741c-0.075-0.382-0.215-0.727-0.675-0.516   c-0.184,0.083-0.374,0.35-0.394,0.549C35.056,17.421,35.304,17.749,35.685,17.75z" fill="#E94C88"/><path d="M147.505,15.036c0.474,0.201,0.978,0.232,1.429-0.099c0.047-0.035,0.021-0.176,0.026-0.272   c-0.435-0.364-0.931-0.325-1.418-0.166C147.167,14.623,147.145,14.883,147.505,15.036z" fill="#E94C88"/><path d="M188.635,23.349c0.051,0.199,0.245,0.361,0.374,0.538c0.108-0.199,0.272-0.387,0.317-0.601   c0.066-0.339,0.053-0.696,0.076-1.048c0.535-0.918,0.894-1.889,0.892-2.968c0.226-0.07,0.46-0.126,0.681-0.216   c0.533-0.217,0.701-0.69,0.476-1.135c-0.11-0.221-0.604-0.331-0.929-0.339c-0.524-0.016-0.854,0.341-1.039,0.824l-0.063,0.058   c-0.32,0.144-0.595,0.352-0.829,0.614c-1.261,1.475-1.261,1.475-0.077,3.228C188.547,22.653,188.545,23.014,188.635,23.349z" fill="#E94C88"/><path d="M194.197,158.961c-0.021,0.087,0.046,0.229,0.117,0.299c0.035,0.034,0.174-0.033,0.264-0.058   c0.021-0.112,0.1-0.261,0.053-0.336C194.461,158.584,194.284,158.621,194.197,158.961z" fill="#E94C88"/><path d="M156.701,14.991c0.085,0.022,0.199-0.069,0.302-0.108c-0.021-0.09-0.015-0.222-0.069-0.26   c-0.084-0.058-0.246-0.102-0.317-0.058C156.343,14.733,156.375,14.909,156.701,14.991z" fill="#E94C88"/><path d="M168.962,15.821c0.204-0.044,0.397-0.151,0.595-0.232c-0.078-0.085-0.156-0.171-0.229-0.251   c-0.219,0.091-0.416,0.174-0.611,0.258C168.799,15.675,168.898,15.835,168.962,15.821z" fill="#E94C88"/><path d="M190.314,50.022c-0.066,0.311,0.056,0.476,0.297,0.411c0.064-0.018,0.09-0.192,0.133-0.294   c-0.061-0.094-0.117-0.188-0.178-0.285C190.48,49.91,190.331,49.953,190.314,50.022z" fill="#E94C88"/><path d="M8.254,78.16L8.23,78.136c-0.016,0.018-0.032,0.035-0.048,0.053C8.208,78.18,8.229,78.169,8.254,78.16z" fill="#E94C88"/><path d="M7.907,78.481C8,78.384,8.09,78.286,8.182,78.188c-0.076,0.021-0.155,0.039-0.214,0.084   C7.922,78.307,7.926,78.409,7.907,78.481z" fill="#E94C88"/><path d="M191.607,137.203c0.313-1.801,0.354-3.596-0.012-5.395c0.4-1.636,0.272-3.324-0.14-4.863   c-0.333-1.246-0.365-2.475-0.549-3.705c-0.005-0.524-0.007-1.049-0.009-1.57c0.033-0.654,0.06-1.307-0.76-1.54   c-1.338-1.313-0.799-2.388,0.364-3.474c0.392-0.364-0.032-0.939-0.687-0.9c-0.361,0.021-0.715,0.202-1.074,0.313   c-0.006,0.007-0.01,0.012-0.018,0.016c0.008-0.004,0.012-0.009,0.018-0.018c0.099-0.642-0.387-1.319,0.63-1.855   c1.155-0.604,1.263-1.699,0.274-2.163c-1.123-0.524-0.928-0.937-0.313-1.534c0.729-0.713,0.425-1.316-0.044-1.957   c-0.002,0-0.002,0.002-0.002,0.002c0.02-0.558,0.033-1.111,0.053-1.666c-0.007-1.018-0.012-2.033-0.014-3.05   c-0.004,0.003-0.004,0.007-0.006,0.007c0.002,0,0.002-0.004,0.002-0.007c-0.816-2.075-0.799-2.075-0.736-4.64   c0.044-1.786,0.053-3.575,0.037-5.361c-0.01-0.884,0.027-1.809-0.745-2.477c-0.155-3.8-0.846-7.566-0.747-11.381   c0.045-1.684-0.236-3.3-0.832-4.868c0.905-0.907,1.402-1.909,0.735-3.18c0.153-0.182,0.187-0.38,0.097-0.599   c0.689-1.117,0.768-2.207-0.138-3.255c0.243-1.066,0.489-2.135,0.733-3.203c0-0.001,0-0.001,0-0.001   c-0.016-1.557-0.033-3.113-0.047-4.669c0,0-0.002,0-0.002-0.001c0.021-1.769,0.045-3.536,0.067-5.305   c0.25-1.191-0.207-2.214-0.763-3.212c0,0,0,0,0-0.001c-0.006-1.04-0.012-2.08-0.019-3.122c0.185-1.618,0.212-3.241-0.294-4.801   c-0.412-1.269-0.158-2.449,0.221-3.645c0.207-1.506,0.039-3.048,0.764-4.508c0.38-0.766,0.339-1.76-0.016-2.623   c-0.07-0.174-0.371-0.345-0.568-0.35c-0.211-0.004-0.592,0.161-0.615,0.301c-0.186,1.036-0.299,2.083-0.45,3.234   c-0.778-0.746-0.286-1.924-1.241-2.386c0.043-0.501,0.086-1.002,0.131-1.501c-0.131,0.071-0.273,0.103-0.424,0.093   c0.002-0.104,0.008-0.208,0.012-0.312c0.139,0.071,0.272,0.144,0.412,0.217c0.929-2.005,0.596-4.127,0.57-6.22   c1.271-1.956,0.733-4.133,0.758-6.243c-0.262-1.341-1.896-0.369-2.392-1.47c-0.623-1.392-1.858-1.24-2.947-0.722   c-1.788,0.854-3.581,1.308-5.536,0.72c0,0,0,0,0,0.001c0-0.001,0-0.001-0.002-0.001c-0.402-0.58-0.896-0.944-1.617-0.58   c-1.151,0.581-2.295,1.186-3.438,1.783c-0.806,0.42-1.487,0.232-2.097-0.392h0.002c0.072-0.372,0.203-0.745,0.193-1.113   c-0.011-0.351-0.064-0.825-0.289-1.001c-0.168-0.132-0.781,0.008-0.953,0.219c-0.711,0.899-1.727,0.954-2.709,1.131   c-0.238-0.049-0.479-0.101-0.717-0.154c-0.818-0.9-1.91-0.776-2.896-0.604c-3.174,0.551-6.381,0.518-9.577,0.666   c-2.793,0.01-5.552-0.019-8.213-1.167c-1-0.429-2.241-0.305-3.372-0.43c-0.51-0.778-1.328-0.692-2.08-0.697   c-3.854-0.03-7.709-0.025-11.563-0.048c-5.021-0.028-10.041-0.14-15.06-0.064c-1.547,0.022-2.999-0.763-4.573-0.292   c-1.914,0.574-3.807,0.245-5.656-0.38v0.001c0,0,0-0.001-0.002-0.001c-0.44-0.046-0.886-0.091-1.33-0.137   c-0.109-0.037-0.215-0.061-0.315-0.075c-2.888-0.754-5.836-0.424-8.762-0.415c-3.277,0.008-6.49,0.998-9.792,0.64   c-3.254-1.193-6.627-0.826-9.951-0.601c-3.988,0.269-7.968,0.501-11.968,0.496c-2.041-0.003-4.136-0.101-6.058,0.861   c-1.913-0.045-3.799-0.34-5.723,0.262c-3.659,1.144-7.156,2.889-11.094,3.056c-0.617,0.025-1.217,0.4-1.825,0.615   c-0.235-0.12-0.481-0.156-0.741-0.119c-0.898-0.994-0.358-2.506-1.197-3.52c-1.974,0.669-1.991,0.663-3.15,1.984   c-0.541,0.617-1.024,0.67-1.568,0.124c-0.913-0.914-2.159-0.646-3.242-0.947c-0.52-0.145-1.116,0.037-1.385,0.455   c-1.237,1.933-3.217,2.661-5.22,3.378l0.001,0.001c-0.001,0-0.001,0-0.001,0c-0.58,0.101-1.149,0.224-1.485,0.787l0.162,0.212   c-0.001,0-0.001,0-0.001,0c-0.001,0.002-0.002,0.003-0.003,0.005c-0.053-0.072-0.106-0.146-0.158-0.217   c-1.707,0.409-2.813,1.399-3.076,3.195c0,0.001,0,0.001,0,0.002c-1.424,1.002-2.72,2.102-3.004,3.967v0.001   c-0.042,0.216-0.041,0.432,0.005,0.648C9.77,31.288,8.64,32.5,9.03,33.958c0.326,1.222-0.042,2.088-0.739,3.12   c-0.931,1.376-1.457,3.012-0.029,4.525h0.001c-0.004,0.265-0.008,0.53-0.01,0.794c0,0,0,0,0-0.001   c-0.254,0.273-0.507,0.545-0.76,0.816h0.001c0,0.001-0.001,0.001-0.001,0.001c-0.216,0.962-0.571,1.92-0.599,2.889   c-0.021,0.645,0.224,1.594,1.346,0.954c0.461-0.228,0.922-0.457,1.384-0.684V46.37c0.089,1.278,0.183,2.555,0.272,3.832   C9.9,50.2,9.901,50.196,9.903,50.194C9.901,50.197,9.901,50.2,9.9,50.203c-0.146,0.229-0.179,0.473-0.1,0.732   c-0.04,0.772-0.082,1.545-0.121,2.318c0,0,0.001,0.001,0.001,0.002c-0.001-0.001-0.001-0.001-0.001-0.001   c-0.939,0.568-1.543,1.23-1.116,2.478c0.134,0.393-0.204,0.947-0.325,1.426c-0.001,0-0.001,0-0.001,0   c-0.013,0.248-0.022,0.498-0.032,0.745c-0.001,0.001-0.002,0.003-0.002,0.004c-0.391,0.247-0.617,0.59-0.625,1.06c0,0,0,0,0,0.001   c0.016,0.186-0.022,0.363-0.117,0.524c-1.272,1.293-0.961,2.889-0.469,4.263c0.569,1.583,0.354,2.964-0.213,4.406   c-0.001,0-0.001,0-0.002,0c0.229,0.737,0.459,1.474,0.689,2.209c0.26,0.523,0.52,1.043,0.778,1.564   c-0.448,0.103-0.669,0.392-0.685,0.846c-0.214,0.56-0.436,1.115-0.637,1.679c-0.216,0.603-0.23,1.173,0.353,1.605   c0.34,0.19,0.732,0.236,1.083,0.396c0.007,0.003,0.014,0.005,0.021,0.008H8.38c0.201,0.054,0.4,0.111,0.599,0.172   c-0.237,0.498-0.476,0.995-0.712,1.491c0.999-0.003,2.005-0.759,2.997,0.031c0.137,0.254,0.108,0.489-0.086,0.704   C7.781,79.7,7.324,80.68,8.982,83.597c0.402,1.855,0.67,3.781,0.309,5.608c-0.503,2.538-0.499,5.045-0.326,7.583   c-0.156,0.623-0.436,1.241-0.453,1.868c-0.217,7.876-0.75,15.747-0.479,23.635c0.334,9.695,1.147,19.344,2.593,28.938   c0,0,0,0.002,0.001,0.002c-0.001,0-0.001-0.002-0.002-0.002c0.16,4.697,0.678,9.354,1.527,13.979   c-0.262,1.904,0.576,3.634,0.87,5.449c-0.315,1.611,0.847,2.994,0.702,4.58c0.09,1.611,0.779,2.93,2.008,3.953   c0.17,0.145,0.508,0.24,0.689,0.166c0.169-0.067,0.292-0.385,0.333-0.607c0.176-0.936-0.355-1.721-0.562-2.577   c-0.215-0.887-0.269-1.782,0.617-2.413c0.716,0.99,0.475,2.408,1.466,3.275c-0.009,2.119,1.446,3.429,2.697,4.845   c0.283,0.315,0.655,0.39,1.015,0.17c0.638-0.388,1.483-0.489,1.816-1.305c0.787-0.228,1.779,0.479,2.397-0.522   c0.237-0.099,0.475-0.195,0.711-0.293c0.51,0.02,1.021,0.038,1.529,0.059h0.001c0.607,0.449,1.263,0.844,1.802,1.363   c0.389,0.373,0.746,0.748,1.269,0.461c1.729-0.951,3.489,0.191,5.219-0.137c0.001,0,0.001,0,0.002,0   c0.345,0.156,0.683,0.422,1.039,0.45c4.866,0.392,9.734,0.786,14.607,1.101c2.046,0.129,4.105,0.049,6.158,0.084   c3.973,0.065,7.945,0.164,11.905-0.289v0.002c2.584,0.017,5.205,0.312,7.742-0.026c2.163-0.285,4.319,0.133,6.479-0.409   c2.282-0.57,4.624,0.239,6.939,0.294c6.471,0.156,12.949,0.302,19.419,0.183c3.078-0.056,6.098-0.262,9.205,0.095   c5.879,0.669,11.838,0.479,17.725,1.271c1.66,0.223,3.357,0.146,4.871,1.065c0.459,0.278,1.003,0.036,1.468-0.218   c2.829,0.057,5.663-0.226,8.487,0.283c1.148,0.207,2.281-0.172,3.392-0.568c1.069-0.385,2.235-0.928,3.291-0.805   c0.949,0.11,1.362-0.158,1.929-0.726c0.594-0.596,1.732-0.692,1.639-1.894c0.471-0.537,0.938-1.072,1.41-1.607   c0.574,0.141,1.146,0.299,1.725,0.418c0.988,0.209,1.041,0.146,1.289-1.396h-0.003c0.325-0.504,0.581-1.082,0.997-1.496   c0.928-0.92,1.656-0.863,3.084,0.076c-0.047,0.383-0.146,0.771-0.135,1.15c0.054,1.682,0.285,1.766,1.78,1.336   c1.298-0.369,1.536-1.205,1.446-2.34c0.915-2.092,2.454-3.744,3.865-5.488c0.752-0.246,0.949-0.791,0.822-1.509   c0.332,0.19,0.721,0.319,0.979,0.579c3.105,3.107,3.68,2.486,6.293,0.225c0.188-0.162,0.497-0.193,0.667-0.369   c0.819-0.844,1.632-1.768,0.954-3.018c-0.596-1.098,0.181-1.975,0.24-2.956c0.121-0.212,0.18-0.437,0.173-0.681   c0.954-2.039,0.868-2.225-1.558-3.297c-0.105-0.973-0.137-1.938,0.258-2.871c0.722,0.143,1.441,0.281,2.158,0.42   c0.393-1.508-1.108-1.932-1.479-2.926c-0.45-1.211-0.186-2.51-0.133-3.774l0.005-0.002c0.329-0.646,0.983-0.618,1.565-0.8   c1.428-0.448,1.469-0.604,0.698-2.321c0.011-0.007,0.019-0.015,0.027-0.021v-0.004c-0.112-0.914-0.109-1.836,0.608-2.516   c1.129-1.064,0.159-2.783,1.248-3.857c0.063-0.063-0.168-0.426-0.263-0.647C191.705,140.316,191.654,138.762,191.607,137.203z    M190.133,148.877l-0.027-0.023c-0.002,0-0.002,0-0.002-0.004L190.133,148.877z" fill="#E94C88"/></g><path d="M100.006,158.115c-32.053,0-58.124-26.071-58.124-58.112c0-32.047,26.071-58.118,58.124-58.118  c32.041,0,58.112,26.07,58.112,58.118C158.118,132.044,132.047,158.115,100.006,158.115z M149.009,107.956  c-1.694-0.539-15.359-4.613-30.915-2.117c6.49,17.837,9.133,32.371,9.634,35.394C138.873,133.695,146.801,121.768,149.009,107.956z   M119.397,145.771c-0.747-4.354-3.628-19.537-10.595-37.645l-0.331,0.111c-27.997,9.763-38.048,29.177-38.941,31  c8.41,6.563,18.993,10.484,30.475,10.484C106.875,149.722,113.433,148.314,119.397,145.771z M63.12,133.269  c1.125-1.922,14.748-24.48,40.348-32.758c0.648-0.214,1.296-0.409,1.958-0.593c-1.248-2.82-2.605-5.641-4.025-8.417  c-24.787,7.414-48.845,7.108-51.016,7.059c-0.012,0.508-0.025,1.003-0.025,1.517C50.359,112.825,55.192,124.472,63.12,133.269z   M51.406,89.91c2.22,0.03,22.676,0.123,45.896-6.043c-8.228-14.631-17.098-26.916-18.413-28.713  C65.004,61.699,54.624,74.507,51.406,89.91z M88.365,51.813c1.376,1.835,10.393,14.118,18.516,29.055  c17.661-6.606,25.135-16.65,26.021-17.922c-8.759-7.782-20.289-12.51-32.896-12.51C95.993,50.437,92.096,50.907,88.365,51.813z   M138.421,68.685c-1.039,1.418-9.359,12.081-27.716,19.575c1.155,2.36,2.263,4.771,3.296,7.193c0.361,0.857,0.723,1.707,1.064,2.563  C131.581,95.93,148,99.27,149.64,99.612C149.528,87.892,145.34,77.132,138.421,68.685z" fill="#FFFFFF"/></svg>