<?xml version="1.0" encoding="utf-8"?>
<!-- Generator: Adobe Illustrator 18.0.0, SVG Export Plug-In . SVG Version: 6.00 Build 0)  -->
<!DOCTYPE svg PUBLIC "-//W3C//DTD SVG 1.1//EN" "http://www.w3.org/Graphics/SVG/1.1/DTD/svg11.dtd">
<svg version="1.1" id="Layer_1" xmlns="http://www.w3.org/2000/svg" xmlns:xlink="http://www.w3.org/1999/xlink" x="0px" y="0px"
	 viewBox="0 0 512 512" enable-background="new 0 0 512 512" xml:space="preserve">
<g>
	<polyline fill="#E44E25" points="-59,539 558,539 558,-54 -59,-54 -59,539 	"/>
	<polyline fill="#FFFFFF" points="135.4,73.9 151.5,73.9 151.5,91 169.7,91 169.7,73.9 185.8,73.9 185.8,123.2 169.7,123.2 
		169.7,103.3 151.5,103.3 151.5,123.2 135.4,123.2 135.4,73.9 	"/>
	<polyline fill="#FFFFFF" points="192.4,73.9 242.1,73.9 242.1,85.5 225.3,85.5 225.3,123.2 209.2,123.2 209.2,85.5 192.4,85.5 
		192.4,73.9 	"/>
	<polyline fill="#FFFFFF" points="248.6,73.9 269.8,73.9 277.9,104 285.9,73.9 307.1,73.9 307.1,123.2 293.9,123.2 293.9,85.8 
		284,123.2 271.8,123.2 261.8,85.8 261.8,123.2 248.6,123.2 248.6,73.9 	"/>
	<polyline fill="#FFFFFF" points="317.3,73.9 333.4,73.9 333.4,110.9 359,110.9 359,123.2 317.3,123.2 317.3,73.9 	"/>
	<polyline fill="#FFFFFF" points="246.2,283 246,283 140.6,283 129,161 127.9,149.1 246,149.1 246.2,149.1 364.2,149.1 363.1,161 
		360.9,183.4 360,193.4 359.8,193.4 246.2,193.4 246,193.4 179.5,193.4 183.8,238.7 246,238.7 246.2,238.7 343,238.7 355.7,238.7 
		354.5,250.6 343.5,367.1 342.7,374.6 246.2,399.7 246.2,399.7 246,399.8 149.3,374.6 142.7,305.1 164.6,305.1 190.1,305.1 
		193.4,340.4 246,353.7 246,353.7 246,353.7 298.6,340.4 304.1,283 246.2,283 	"/>
</g>
</svg>
